<svg xmlns="http://www.w3.org/2000/svg" width="64" height="64" viewBox="30 30 281 281" version="1"><g fill="none" fill-rule="evenodd"><path fill="#FFF" stroke="#000" stroke-width="4" d="M117 150c9-4 17-4 24 0-8 10-16 13-24 10-4 10-5 37-19 37s-15-26-19-38c-7 3-14-1-21-10 7-3 15-3 22 0 4-7 9-10 18-10s13 3 19 11z"/><path fill="#000" d="M86 160c-2 0-3-2-3-4 1-2 3-2 5-2 2 1 4 2 3 4 0 2-2 3-5 2zM110 160c-2 1-4 1-4-2-1-2 0-3 2-4 3-1 5 0 5 2 1 2 0 3-3 4z"/><path stroke="#000" stroke-width="3" d="M105 177c-2 3-4 4-7 4s-5-1-7-4"/><path fill="#000" fill-rule="nonzero" d="M101 181h-5l1 4h3z"/><path stroke="#000" stroke-width="2" d="M102 188h-9"/><path stroke="#BA1818" stroke-width="7" d="M277 179c-11 0-11-11-21-11-11 0-11 11-22 11-10 0-10-11-21-11-10 0-10 11-21 11M192 179c-11 0-11-11-21-11-11 0-11 11-22 11-10 0-10-11-21-11M74 179c0 10-10 10-10 21 0 10 10 10 10 21"/><g><path fill="#FFF" stroke="#000" stroke-width="4" d="M192 211c-9-4-17-4-24 0 8 9 16 12 24 9 3 11 4 38 19 38 14 0 15-27 19-39 7 3 14 0 21-9-7-4-15-4-22 0-4-8-10-10-18-10-9 0-13 2-19 11z"/><path fill="#000" d="M222 221c3-1 4-2 4-4-1-3-3-3-5-2-2 0-4 1-3 4 0 2 2 2 4 2zM199 221c2 0 4 0 4-2 1-2 0-4-3-4-2-1-4-1-4 1-1 2 0 4 3 5z"/><path stroke="#000" stroke-width="3" d="M204 238c2 2 4 3 7 3s5-1 7-3"/><path fill="#000" fill-rule="nonzero" d="M208 241h5l-1 4h-3z"/><path stroke="#000" stroke-width="2" d="M206 248h9"/><path stroke="#BA1818" stroke-width="7" d="M32 239c11 0 11-10 21-10 11 0 11 10 21 10 11 0 11-10 22-10 10 0 10 10 21 10M117 239c11 0 11-10 21-10 11 0 11 10 21 10 11 0 11-10 22-10M234 239c0 11 11 11 11 21 0 11-11 11-11 22"/></g><g><path fill="#FFF" stroke="#000" stroke-width="4" d="M176 84c-8-4-16-4-23 0 7 10 15 13 23 10 4 10 5 37 19 37s16-26 20-38c7 3 14-1 21-10-8-3-15-3-23 0-3-7-9-10-18-10s-12 3-19 11z"/><path fill="#000" d="M207 94c2 0 4-2 3-4 0-2-2-2-4-2-3 1-4 2-4 4 1 2 3 3 5 2zM183 94c2 1 4 1 5-2 1-2-1-3-3-4s-4 0-5 2 1 3 3 4z"/><path stroke="#000" stroke-width="3" d="M189 111c1 3 4 4 7 4s5-1 6-4"/><path fill="#000" fill-rule="nonzero" d="M193 115h5l-1 4h-3z"/><path stroke="#000" stroke-width="2" d="M191 122h9"/><path stroke="#BA1818" stroke-width="7" d="M17 113c10 0 10-11 21-11 10 0 10 11 21 11s11-11 21-11c11 0 11 11 22 11M102 113c10 0 10-11 21-11 10 0 10 11 21 11s11-11 21-11M219 113c0 10 11 10 11 21 0 10-11 10-11 21"/></g><path fill="#FFF" fill-rule="nonzero" d="M170 310a139 139 0 1 0 0-278 139 139 0 0 0 0 278zm0 31a170 170 0 1 1 0-340 170 170 0 0 1 0 340z"/><circle cx="170" cy="171" r="137" stroke="#BA1818" stroke-width="7"/></g></svg>
